<svg width="1024" height="1024" xmlns="http://www.w3.org/2000/svg">
  <defs>
    <linearGradient id="bg" x1="0%" y1="0%" x2="100%" y2="100%">
      <stop offset="0%" style="stop-color:#ff6b9d;stop-opacity:1" />
      <stop offset="100%" style="stop-color:#ffd93d;stop-opacity:1" />
    </linearGradient>
  </defs>
  <rect width="1024" height="1024" fill="url(#bg)"/>
  <circle cx="300" cy="400" r="120" fill="#8B4513" opacity="0.8"/>
  <circle cx="300" cy="380" r="60" fill="#F5DEB3" opacity="0.9"/>
  <circle cx="280" cy="370" r="8" fill="#000"/>
  <circle cx="320" cy="370" r="8" fill="#000"/>
  <path d="M 280 395 Q 300 405 320 395" stroke="#000" stroke-width="3" fill="none"/>
  <path d="M 250 350 Q 270 320 290 340" stroke="#8B4513" stroke-width="15" fill="none"/>
  <path d="M 310 340 Q 330 320 350 350" stroke="#8B4513" stroke-width="15" fill="none"/>
  
  <ellipse cx="700" cy="500" rx="80" ry="120" fill="#9370DB" opacity="0.8"/>
  <circle cx="680" cy="480" r="25" fill="#FF69B4" opacity="0.7"/>
  <circle cx="720" cy="480" r="25" fill="#FF69B4" opacity="0.7"/>
  <path d="M 650 550 Q 700 570 750 550" stroke="#9370DB" stroke-width="8" fill="none"/>
  
  <text x="512" y="150" font-family="Arial, sans-serif" font-size="48" font-weight="bold" text-anchor="middle" fill="white">Emma & the Dancing Dragon</text>
  
  <circle cx="100" cy="100" r="15" fill="#FFD700" opacity="0.8"/>
  <circle cx="900" cy="200" r="12" fill="#FFD700" opacity="0.6"/>
  <circle cx="150" cy="900" r="18" fill="#FFD700" opacity="0.7"/>
  <circle cx="850" cy="850" r="14" fill="#FFD700" opacity="0.9"/>
</svg>