<svg width="1024" height="1024" xmlns="http://www.w3.org/2000/svg">
  <defs>
    <linearGradient id="bg2" x1="0%" y1="0%" x2="100%" y2="100%">
      <stop offset="0%" style="stop-color:#1e3a8a;stop-opacity:1" />
      <stop offset="100%" style="stop-color:#0f172a;stop-opacity:1" />
    </linearGradient>
  </defs>
  <rect width="1024" height="1024" fill="url(#bg2)"/>
  
  <circle cx="400" cy="400" r="120" fill="#F5DEB3" opacity="0.9"/>
  <circle cx="380" cy="380" r="8" fill="#000"/>
  <circle cx="420" cy="380" r="8" fill="#000"/>
  <path d="M 380 410 Q 400 420 420 410" stroke="#000" stroke-width="3" fill="none"/>
  <rect x="360" y="300" width="80" height="40" fill="#000" rx="20"/>
  <circle cx="400" cy="320" r="15" fill="#FFD700"/>
  
  <ellipse cx="600" cy="450" rx="60" ry="80" fill="#DC143C" opacity="0.8"/>
  <ellipse cx="580" cy="430" rx="15" ry="20" fill="#32CD32" opacity="0.9"/>
  <ellipse cx="620" cy="430" rx="15" ry="20" fill="#32CD32" opacity="0.9"/>
  <ellipse cx="600" cy="450" rx="8" ry="10" fill="#FFD700" opacity="0.8"/>
  
  <rect x="300" y="600" width="400" height="60" fill="#8B4513" opacity="0.8"/>
  <rect x="280" y="580" width="440" height="20" fill="#654321" opacity="0.8"/>
  
  <text x="512" y="150" font-family="Arial, sans-serif" font-size="48" font-weight="bold" text-anchor="middle" fill="white">Max's Pirate Adventure</text>
  
  <circle cx="100" cy="100" r="3" fill="white" opacity="0.8"/>
  <circle cx="200" cy="150" r="2" fill="white" opacity="0.6"/>
  <circle cx="900" cy="200" r="4" fill="white" opacity="0.9"/>
  <circle cx="800" cy="120" r="2" fill="white" opacity="0.7"/>
  <circle cx="150" cy="250" r="3" fill="white" opacity="0.8"/>
</svg>