<svg width="1024" height="1024" xmlns="http://www.w3.org/2000/svg">
  <defs>
    <linearGradient id="bg3" x1="0%" y1="0%" x2="100%" y2="100%">
      <stop offset="0%" style="stop-color:#e0aaff;stop-opacity:1" />
      <stop offset="50%" style="stop-color:#c77dff;stop-opacity:1" />
      <stop offset="100%" style="stop-color:#a8e6cf;stop-opacity:1" />
    </linearGradient>
  </defs>
  <rect width="1024" height="1024" fill="url(#bg3)"/>
  
  <ellipse cx="200" cy="600" rx="120" ry="60" fill="white" opacity="0.7"/>
  <ellipse cx="250" cy="580" rx="100" ry="50" fill="white" opacity="0.6"/>
  <ellipse cx="180" cy="590" rx="90" ry="45" fill="white" opacity="0.8"/>
  
  <ellipse cx="700" cy="700" rx="150" ry="70" fill="white" opacity="0.6"/>
  <ellipse cx="750" cy="680" rx="120" ry="55" fill="white" opacity="0.7"/>
  
  <ellipse cx="500" cy="400" rx="100" ry="50" fill="white" opacity="0.8"/>
  
  <circle cx="400" cy="450" r="80" fill="#F5DEB3" opacity="0.9"/>
  <circle cx="380" cy="430" r="6" fill="#000"/>
  <circle cx="420" cy="430" r="6" fill="#000"/>
  <path d="M 380 460 Q 400 470 420 460" stroke="#000" stroke-width="2" fill="none"/>
  <path d="M 360 410 Q 380 380 400 400" stroke="#000" stroke-width="10" fill="none"/>
  <path d="M 400 400 Q 420 380 440 410" stroke="#000" stroke-width="10" fill="none"/>
  
  <rect x="370" y="520" width="60" height="80" fill="white" opacity="0.9"/>
  
  <circle cx="200" cy="200" r="20" fill="#FFD700" opacity="0.8">
    <animate attributeName="opacity" values="0.8;1;0.8" dur="2s" repeatCount="indefinite"/>
  </circle>
  <circle cx="800" cy="150" r="15" fill="#FFD700" opacity="0.7">
    <animate attributeName="opacity" values="0.7;1;0.7" dur="1.5s" repeatCount="indefinite"/>
  </circle>
  <circle cx="300" cy="150" r="18" fill="#FFD700" opacity="0.9">
    <animate attributeName="opacity" values="0.9;1;0.9" dur="1.8s" repeatCount="indefinite"/>
  </circle>
  
  <text x="512" y="100" font-family="Arial, sans-serif" font-size="48" font-weight="bold" text-anchor="middle" fill="white">Luna's Dream Kingdom</text>
</svg>